<?xml version="1.0" encoding="UTF-8"?><svg id="a" xmlns="http://www.w3.org/2000/svg" width="207.51" height="98" viewBox="0 0 207.51 98"><path id="b" d="m79.48,97.86h-.79v-9.65h6.45v.74h-5.67v3.93l4.52-1.2.18.7-4.7,1.24v4.23Zm23.27,0h-6.45v-9.65h6.45v.74h-5.67v3.54h5.01v.69h-5.01v3.93h5.67v.74Zm10.94-1.14l.33-.77c1.31.83,2.62,1.3,3.71,1.28,1.37,0,2.29-.65,2.29-1.88.01-1.2-1.75-1.56-3.38-2.03-1.52-.43-3.08-1.01-2.99-2.72.07-1.6,1.41-2.52,3.12-2.54,1.23-.01,2.63.43,3.89,1.38l-.39.65c-1.13-.9-2.47-1.3-3.5-1.28-1.26,0-2.23.68-2.3,1.83-.07,1.12,1.08,1.57,2.41,1.96,1.79.51,3.96.97,3.96,2.7s-1.21,2.68-3.12,2.69c-1.14.01-2.54-.4-4.03-1.28Zm21.39,1.14h-.8v-8.88h-2.9v-.77h6.59v.77h-2.9v8.88Zm14.67,0h-.77v-9.65h.77v9.65Zm15.93,0h-1.12l-3.81-9.65h.86l3.52,9.06,3.5-9.06h.85l-3.81,9.65Zm14.3,0h-.85l3.81-9.65h1.12l3.81,9.65h-.86l-3.5-9.06-3.52,9.06Zm25.25,0h-6.37v-9.65h.79v8.88h5.59v.77Zm-124.86-16.33h-2.09l4.94-13.69,7.03,10.77,7.06-10.77,4.94,13.69h-2.11l-3.39-9.35-6.48,10.03-6.5-10.03-3.41,9.35Zm35.33-3.99h-7.71l-2.58,3.99h-2.34l8.77-13.62,8.77,13.62h-2.34l-2.58-3.99Zm-6.59-1.74h5.48l-2.74-4.25-2.74,4.25Zm18.15-1.74l5.69-5.48h2.83l-7.52,7.29v5.66h-1.97v-5.66l-7.52-7.29h2.83l5.66,5.48Zm10.72-5.48h12.88v1.74h-10.89v3.55h9.17v1.74h-9.19v5.92h-1.97v-12.95Zm16.13,12.95v-12.95h1.97v12.95h-1.97Zm6.27-12.95h12.88v1.74h-10.89v3.55h9.17v1.74h-9.19v4.18h10.91v1.74h-12.88v-12.95Zm18.11,11.21h10.65v1.74h-12.63v-12.95h1.97v11.21Zm12.86,1.74v-12.95h7.15c3.92,0,9.01,1.79,9.01,6.48s-5.08,6.48-9.01,6.48h-7.15Zm1.97-1.74h4.97c2.99,0,7.13-.95,7.13-4.74s-4.13-4.74-7.13-4.74h-4.97v9.47Z" fill="#1d1d1b" stroke-width="0"/><path id="c" d="m81.74,50.54c-2.08.64-4.01,1.81-5.81,3.51-1.79,1.7-3.46,3.61-4.99,5.73-1.53,2.12-2.94,4.3-4.23,6.54-1.28,2.24-2.48,4.26-3.59,6.06-1.1,1.8-2.14,3.21-3.11,4.24-.97,1.03-1.89,1.37-2.78,1-1.38-.55-2.18-1.93-2.39-4.15-.21-2.22.08-4.93.86-8.12.78-3.19,1.97-6.69,3.57-10.49.83-1.99,1.76-3.97,2.76-5.94.38-.77,1.02-1.94,1.8-3.29-2.6.05-5.18.11-7.7.16l-1.63,3.02c-.78,1.7-1.51,3.42-2.17,5.14-1.74,4.6-2.84,8.91-3.3,12.94-.46,4.03-.22,7.58.71,10.67.93,3.09,2.74,5.29,5.41,6.61.81.46,1.73.49,2.75.09,1.02-.41,2.03-1.01,3.02-1.8.99-.79,1.9-1.66,2.74-2.59.83-.93,1.47-1.72,1.91-2.36,1.78-2.2,3.45-4.68,5.01-7.43,1.57-2.76,3.25-5.41,5.04-7.96,1.8-2.55,3.87-4.75,6.21-6.61,2.34-1.86,5.15-2.99,8.42-3.4-1.58-1.22-3.18-1.87-4.8-1.96-1.62-.09-2.87.04-3.74.39Zm74.41-14.24c-.19-1.78-.59-3.55-1.21-5.3-.63-1.76-1.5-3.4-2.63-4.93-1.12-1.53-2.62-2.73-4.48-3.58-1.81-.85-3.49-1.04-5.04-.59-1.55.45-2.93,1.36-4.12,2.74-1.19,1.38-2.12,3.1-2.8,5.17-.68,2.07-1.04,4.28-1.08,6.64-.04,2.36.27,4.77.94,7.24.67,2.46,1.79,4.74,3.36,6.84-.6-1.55-1.01-3.29-1.22-5.22-.22-1.93-.26-3.88-.13-5.85.13-1.97.45-3.85.94-5.65.49-1.8,1.14-3.33,1.93-4.59.8-1.26,1.73-2.16,2.8-2.71,1.07-.55,2.27-.52,3.58.07.98.49,1.77,1.38,2.38,2.66.61,1.28,1.06,2.68,1.37,4.19.31,1.51.5,2.96.56,4.38.06,1.41.01,2.46-.14,3.13-.4,1.99-1.1,4.1-2.09,6.32-.99,2.23-2.26,4.15-3.81,5.77-1.55,1.62-3.4,2.73-5.56,3.33-2.16.59-4.64.28-7.45-.94-1.6-.7-3.21-2.05-4.85-4.07-1.64-2.02-3.31-4.36-5-7.03-1.69-2.67-3.42-5.52-5.18-8.55-1.76-3.03-3.52-5.9-5.3-8.61-1.78-2.71-3.56-5.13-5.36-7.26-1.8-2.13-3.6-3.64-5.4-4.54-3.72-1.76-7.52-2.27-11.4-1.54-3.87.73-7.67,2.32-11.38,4.77-3.71,2.45-7.23,5.6-10.56,9.45-2.89,3.35-5.5,6.92-7.85,10.69l-.13.24c2.64.05,5.33.11,8.02.17.79-1.2,1.52-2.25,2.1-2.98h0c.81-1.1,1.64-2.18,2.51-3.24,2.73-3.35,5.61-6.17,8.62-8.45,3.02-2.29,6.12-3.86,9.31-4.72,3.19-.86,6.36-.65,9.51.62,1.49.62,3.01,1.89,4.54,3.81,1.54,1.92,3.12,4.2,4.76,6.86,1.24,2.02,2.52,4.17,3.81,6.4,0,0,0,0,0,0,1.1,1.89,6.1,10.03,7.72,12.37,1.52,2.12,3.08,4.09,4.71,5.87,2.02,2.22,4.1,3.83,6.23,4.84,3.23,1.51,6.29,1.89,9.17,1.14,2.88-.75,5.44-2.17,7.67-4.25,2.23-2.08,4.02-4.6,5.38-7.56,1.36-2.96,2.13-5.89,2.31-8.79.14-1.38.12-2.96-.06-4.74Z" fill="#e5005b" stroke-width="0"/><path id="d" d="m90.79,3.23c2.66-5.41,11.86-4.73,19.03,7.58,6.92,11.88,10.67,15.45,12.92,17.17,2.04,1.55,5.79,1.72,7.19,0,1.39-1.72.48-3.28.48-3.28-.22.15-2.6,1.35-3.74-1.09-1.52-3.25,3.24-5.87,5.49-2.46,2.71,4.08-.19,7.32-2.2,9.01-2.01,1.69-7.94,3.2-12.22-.47-4.28-3.68-7.41-10.81-11.9-19.11-4.49-8.31-8.94-9.19-10.77-8.8-1.83.38-1.53,2.05-1.53,2.05,2.51.06,2.45,2.63,2.09,3.54-.61,1.54-2.83,2.19-4.47.71-1.78-1.62-.39-4.82-.39-4.82Zm22.81,38.28s-66.83-1.52-85.75-1.92c-5.18-.62-7.46-4.05-10.11-6.1-2.98-2.3-9.48-3.14-13.94.7-4.46,3.84-4.85,12.09-1.97,16.56,2.88,4.46,8.5,5.71,13.01,3.94,4.42-1.74,5.88-8.93,3.79-12.22-1.73-2.73-4.77-4.26-7.4-2.97-2.14,1.06-2.42,3.46-.98,4.49.66.47.83.81.24,1.31-1.04.86-2.79-.55-3.81-2-.96-1.37-1.5-5.32,1.3-7.9,3.05-2.81,8.01.4,9.96,2.71,2.04,2.42,3.01,4.98,3.45,7.09.07.28,4.21-.05,5.34-.07h0c17.31-.35,87.96-1.79,87.96-1.79l-1.08-1.81Zm-81.62,4.36c-1.26,0-2.28,1.02-2.28,2.28s1.02,2.28,2.28,2.28,2.28-1.02,2.28-2.28-1.02-2.28-2.28-2.28Zm6.39,0c-1.26,0-2.28,1.02-2.28,2.28s1.02,2.28,2.28,2.28,2.28-1.02,2.28-2.28-1.02-2.28-2.28-2.28Zm-6.39-11.73c-1.26,0-2.28,1.02-2.28,2.28s1.02,2.28,2.28,2.28,2.28-1.02,2.28-2.28-1.02-2.28-2.28-2.28Zm-6.73,12.09c-1.26,0-2.28,1.02-2.28,2.28s1.02,2.28,2.28,2.28,2.28-1.02,2.28-2.28-1.02-2.28-2.28-2.28Z" stroke-width="0"/></svg>